<svg width="17" height="18" viewBox="0 0 17 18" fill="none" xmlns="http://www.w3.org/2000/svg">
<path d="M8.28848 2.35925C10.471 2.35925 10.7294 2.36882 11.5877 2.40711C12.3854 2.44221 12.8162 2.57622 13.1033 2.6879C13.483 2.83467 13.7575 3.01336 14.0414 3.29733C14.3286 3.5845 14.5041 3.85572 14.6509 4.23542C14.7625 4.52259 14.8966 4.95653 14.9317 5.75103C14.9699 6.61254 14.9795 6.87099 14.9795 9.05029C14.9795 11.2328 14.9699 11.4912 14.9317 12.3495C14.8966 13.1472 14.7625 13.578 14.6509 13.8652C14.5041 14.2449 14.3254 14.5193 14.0414 14.8032C13.7543 15.0904 13.483 15.2659 13.1033 15.4127C12.8162 15.5244 12.3822 15.6584 11.5877 15.6935C10.7262 15.7318 10.4678 15.7413 8.28848 15.7413C6.10599 15.7413 5.84754 15.7318 4.98923 15.6935C4.19154 15.6584 3.76078 15.5244 3.47361 15.4127C3.09391 15.2659 2.81951 15.0872 2.53553 14.8032C2.24836 14.5161 2.07287 14.2449 1.92609 13.8652C1.81441 13.578 1.6804 13.144 1.6453 12.3495C1.60701 11.488 1.59744 11.2296 1.59744 9.05029C1.59744 6.8678 1.60701 6.60935 1.6453 5.75103C1.6804 4.95334 1.81441 4.52259 1.92609 4.23542C2.07287 3.85572 2.25155 3.58131 2.53553 3.29733C2.8227 3.01017 3.09391 2.83467 3.47361 2.6879C3.76078 2.57622 4.19473 2.44221 4.98923 2.40711C5.84754 2.36882 6.10599 2.35925 8.28848 2.35925ZM8.28848 0.888306C6.0709 0.888306 5.7933 0.897878 4.92222 0.936167C4.05433 0.974456 3.45766 1.11485 2.94075 1.31587C2.40152 1.52646 1.94524 1.80406 1.49215 2.26034C1.03587 2.71342 0.75827 3.1697 0.54768 3.70575C0.346662 4.22585 0.206268 4.81933 0.167979 5.68722C0.129689 6.56149 0.120117 6.83909 0.120117 9.05667C0.120117 11.2743 0.129689 11.5518 0.167979 12.4229C0.206268 13.2908 0.346662 13.8875 0.54768 14.4044C0.75827 14.9436 1.03587 15.3999 1.49215 15.853C1.94524 16.3061 2.40152 16.5869 2.93756 16.7943C3.45766 16.9953 4.05114 17.1357 4.91903 17.174C5.79011 17.2123 6.06771 17.2218 8.28529 17.2218C10.5029 17.2218 10.7805 17.2123 11.6515 17.174C12.5194 17.1357 13.1161 16.9953 13.633 16.7943C14.1691 16.5869 14.6253 16.3061 15.0784 15.853C15.5315 15.3999 15.8123 14.9436 16.0197 14.4076C16.2207 13.8875 16.3611 13.294 16.3994 12.4261C16.4377 11.555 16.4473 11.2774 16.4473 9.05986C16.4473 6.84228 16.4377 6.56468 16.3994 5.6936C16.3611 4.82571 16.2207 4.22904 16.0197 3.71213C15.8187 3.1697 15.5411 2.71342 15.0848 2.26034C14.6317 1.80725 14.1754 1.52646 13.6394 1.31906C13.1193 1.11804 12.5258 0.977647 11.6579 0.939358C10.7837 0.897878 10.5061 0.888306 8.28848 0.888306Z" fill="white"/>
<path d="M8.28765 4.86084C5.97116 4.86084 4.0918 6.7402 4.0918 9.0567C4.0918 11.3732 5.97116 13.2526 8.28765 13.2526C10.6042 13.2526 12.4835 11.3732 12.4835 9.0567C12.4835 6.7402 10.6042 4.86084 8.28765 4.86084ZM8.28765 11.7784C6.7848 11.7784 5.56593 10.5595 5.56593 9.0567C5.56593 7.55385 6.7848 6.33497 8.28765 6.33497C9.7905 6.33497 11.0094 7.55385 11.0094 9.0567C11.0094 10.5595 9.7905 11.7784 8.28765 11.7784Z" fill="white"/>
<path d="M13.63 4.69484C13.63 5.23727 13.1897 5.6744 12.6505 5.6744C12.108 5.6744 11.6709 5.23408 11.6709 4.69484C11.6709 4.15241 12.1112 3.71527 12.6505 3.71527C13.1897 3.71527 13.63 4.1556 13.63 4.69484Z" fill="white"/>
</svg>
