<svg width="114" height="36" viewBox="0 0 114 36" fill="none" xmlns="http://www.w3.org/2000/svg">
<path d="M33.8727 6.67237C33.8727 4.34809 35.4843 2.51355 37.7306 2.51355C39.9768 2.51355 41.6297 4.34809 41.6297 6.67237C41.6297 8.99665 39.9768 10.8312 37.7306 10.8312C35.4843 10.8312 33.8727 8.99863 33.8727 6.67237ZM36.2649 13.3865H39.2374C39.5293 13.3863 39.8183 13.4467 40.088 13.5644C40.3577 13.6821 40.6027 13.8548 40.8091 14.0725C41.0155 14.2902 41.1791 14.5487 41.2907 14.8332C41.4023 15.1177 41.4596 15.4227 41.4594 15.7306V32.9109C41.4596 33.2184 41.4024 33.523 41.2911 33.8073C41.1797 34.0915 41.0164 34.3499 40.8104 34.5675C40.6045 34.7852 40.3599 34.9579 40.0906 35.0759C39.8214 35.1938 39.5327 35.2546 39.2412 35.2549H36.2649C35.973 35.2552 35.684 35.1947 35.4143 35.077C35.1446 34.9593 34.8996 34.7867 34.6932 34.5689C34.4869 34.3512 34.3232 34.0927 34.2116 33.8082C34.1001 33.5237 34.0427 33.2188 34.043 32.9109V15.7306C34.042 15.4225 34.0986 15.1172 34.2094 14.8322C34.3202 14.5471 34.4832 14.2879 34.689 14.0694C34.8948 13.8508 35.1394 13.6771 35.4089 13.5582C35.6783 13.4394 35.9673 13.3777 36.2593 13.3767L36.2649 13.3865Z" fill="white"/>
<path d="M46.5958 13.3786H50.4556C50.8152 13.3791 51.1599 13.5302 51.414 13.7986C51.6681 14.0671 51.8108 14.4309 51.8108 14.8103C53.2952 13.6037 55.2008 12.9323 57.4489 12.9323C61.8983 12.9323 65.2471 16.554 65.2471 21.1157V33.2249C65.2466 33.7603 65.0446 34.2736 64.6856 34.6521C64.3265 35.0305 63.8397 35.2431 63.3322 35.2431H59.7868C59.2793 35.2431 58.7925 35.0305 58.4335 34.6521C58.0744 34.2736 57.8724 33.7603 57.8719 33.2249V22.9028C57.8719 20.8906 56.6009 19.6386 54.862 19.6386C53.0818 19.6386 51.8108 20.8906 51.8108 22.9028V33.2249C51.8103 33.7603 51.6083 34.2736 51.2493 34.6521C50.8902 35.0305 50.4034 35.2431 49.8959 35.2431H46.5958C46.0232 35.2431 45.474 35.0032 45.069 34.5763C44.6639 34.1493 44.4361 33.5702 44.4356 32.9662V15.6575C44.4356 15.3582 44.4915 15.0619 44.6001 14.7854C44.7086 14.5089 44.8677 14.2577 45.0683 14.0461C45.2689 13.8345 45.507 13.6666 45.7691 13.5521C46.0312 13.4376 46.3121 13.3786 46.5958 13.3786Z" fill="white"/>
<path d="M70.0971 2.64783H73.7361C74.2325 2.64783 74.7086 2.85588 75.0597 3.22622C75.4107 3.59656 75.6079 4.09884 75.6079 4.62258V14.4094C77.0909 13.4224 78.8132 12.91 80.5665 12.9343C86.5846 12.9343 90.7383 17.7191 90.7383 24.3365C90.7383 30.9085 86.5846 35.6933 80.5665 35.6933C78.7334 35.6853 76.9455 35.0926 75.4376 33.993C75.4376 34.3251 75.3125 34.6435 75.09 34.8783C74.8674 35.1131 74.5656 35.245 74.2508 35.245H70.0653C69.5783 35.245 69.1112 35.0409 68.7668 34.6776C68.4225 34.3143 68.229 33.8216 68.229 33.3078V4.6206C68.2295 4.09789 68.4264 3.59672 68.7766 3.22692C69.1268 2.85712 69.6016 2.64887 70.0971 2.64783ZM83.2751 24.2891C83.2751 21.7397 81.5792 19.8637 79.2057 19.8637C76.8321 19.8637 75.1793 21.6963 75.1793 24.2891C75.1793 26.9274 76.8321 28.76 79.2487 28.76C81.5792 28.76 83.2751 26.9254 83.2751 24.2891Z" fill="white"/>
<path d="M112.69 18.4024C112.248 18.758 111.722 18.9771 111.169 19.0353C110.617 19.0935 110.06 18.9885 109.561 18.732C109.061 18.4755 108.64 18.0777 108.342 17.5828C108.045 17.088 107.884 16.5158 107.877 15.93C107.877 15.2094 108.115 14.5112 108.549 13.9553C106.887 12.9478 105.002 12.4193 103.085 12.4228C97.0577 12.4228 92.1703 17.5216 92.1703 23.8132C92.1703 30.1048 97.0577 35.2055 103.085 35.2055C109.113 35.2055 114 30.1067 114 23.8152C114.001 21.9234 113.551 20.0618 112.69 18.4024ZM102.975 27.0617C102.39 27.0547 101.821 26.8655 101.339 26.518C100.856 26.1705 100.482 25.6801 100.263 25.1087C100.044 24.5373 99.9901 23.9103 100.108 23.3066C100.226 22.703 100.511 22.1497 100.926 21.7163C101.342 21.283 101.869 20.9889 102.443 20.8712C103.016 20.7536 103.61 20.8175 104.149 21.0549C104.688 21.2924 105.149 21.6928 105.473 22.2057C105.797 22.7187 105.97 23.3213 105.97 23.9376C105.97 24.3509 105.892 24.76 105.741 25.1414C105.59 25.5228 105.369 25.8687 105.09 26.1593C104.812 26.4499 104.481 26.6793 104.118 26.8341C103.755 26.989 103.366 27.0664 102.975 27.0617Z" fill="white"/>
<path d="M25.6027 2.63598H28.8691C29.4123 2.63598 29.9331 2.86359 30.3172 3.26874C30.7012 3.67389 30.917 4.22339 30.917 4.79636V33.0116C30.917 33.5846 30.7012 34.1341 30.3172 34.5392C29.9331 34.9444 29.4123 35.172 28.8691 35.172H25.6027C25.0596 35.172 24.5387 34.9444 24.1547 34.5392C23.7706 34.1341 23.5549 33.5846 23.5549 33.0116V4.79438C23.5554 4.22176 23.7714 3.67277 24.1553 3.26804C24.5393 2.86332 25.0599 2.63598 25.6027 2.63598Z" fill="white"/>
<path d="M22.3625 3.70235C22.3157 4.51397 22.0855 5.36311 21.9395 6.04243C21.6437 7.44055 21.172 8.41213 20.15 9.3995C19.0119 10.4896 17.9262 10.687 16.4736 10.926L11.3128 11.7811C10.9871 11.8344 10.6614 11.8857 10.3376 11.941C9.76481 12.0378 9.19202 12.0674 8.754 12.5157C8.63951 12.6336 8.53952 12.7663 8.45637 12.9106C7.10114 12.6796 6.10905 11.9351 5.27419 10.8944C4.25215 9.62265 3.86467 8.08037 4.21471 6.28927C4.58909 4.36389 5.55872 2.65573 7.09365 1.78881C8.06702 1.63676 9.04788 1.53802 10.0213 1.42151C11.9474 1.19442 13.9185 0.876481 15.7997 0.771819C17.4844 0.680981 18.922 0.619763 20.2398 0.876481C20.9287 1.01076 21.6587 1.3524 22.0536 2.01986C22.3197 2.53326 22.4276 3.12129 22.3625 3.70235Z" fill="white"/>
<path d="M8.19619 31.3311V32.9721C8.19965 33.2607 8.14909 33.5472 8.04741 33.8152C7.94574 34.0831 7.79494 34.3273 7.60366 34.5337C7.41239 34.74 7.18439 34.9046 6.93273 35.0178C6.68108 35.1311 6.41071 35.1908 6.13713 35.1937H2.87258C2.59947 35.1908 2.32957 35.1313 2.07828 35.0184C1.82699 34.9055 1.59925 34.7415 1.40804 34.5358C1.21684 34.33 1.06592 34.0865 0.963913 33.8193C0.861904 33.552 0.8108 33.2661 0.813517 32.978V21.9609C3.37237 24.1963 5.5063 24.5755 8.18308 25.0474C8.19057 27.2157 8.19244 29.1628 8.19619 31.3311Z" fill="white"/>
<path d="M14.5006 14.755C15.7286 14.8656 16.9678 14.988 18.1339 15.3988C19.1373 15.7503 19.6614 16.7298 19.9141 17.7566C20.2885 19.2851 21.0017 21.4711 20.5281 23.0312C20.4251 23.3781 20.2513 23.6969 20.0189 23.9653C19.1616 24.9684 17.6847 24.8104 16.4923 24.8183C15.3336 24.8183 12.9058 24.611 10.4256 24.2457C9.67683 24.1331 8.91685 24.0087 8.17933 23.8724C8.17933 23.8724 5.9855 23.28 4.9672 22.8851C3.31434 22.2393 1.84866 21.7397 0.811647 19.8755C0.650357 19.5849 0.504743 19.285 0.375501 18.977C0.117182 18.1555 0.00112639 16.7061 0.00112639 15.6713V8.72413C-0.0148046 7.83804 0.138396 6.95762 0.451614 6.13527C0.764832 5.31293 1.23166 4.56545 1.82433 3.93734C2.82016 2.88875 3.76546 2.49775 4.88858 2.21931L4.82868 2.28645C3.90403 3.3473 3.2711 4.65406 2.99799 6.06612C2.58431 8.18305 3.05415 10.2743 4.28023 11.8028C5.26857 13.0311 6.66312 13.6472 8.13441 13.9296C9.8453 14.2594 11.5749 14.4628 13.3045 14.6444L14.5006 14.755Z" fill="white"/>
</svg>
