<svg width="21" height="21" viewBox="0 0 21 21" fill="none" xmlns="http://www.w3.org/2000/svg">
<path fill-rule="evenodd" clip-rule="evenodd" d="M20.6504 10.8618C20.6504 16.3846 16.1732 20.8618 10.6504 20.8618C5.12754 20.8618 0.650391 16.3846 0.650391 10.8618C0.650391 5.33891 5.12754 0.861755 10.6504 0.861755C16.1732 0.861755 20.6504 5.33891 20.6504 10.8618ZM15.8551 9.39976C16.6621 9.39976 17.3171 10.0547 17.3171 10.8617C17.3171 11.4582 16.9545 11.9729 16.475 12.2068C16.4984 12.3471 16.5101 12.4875 16.5101 12.6395C16.5101 14.8851 13.9019 16.698 10.6738 16.698C7.44576 16.698 4.83757 14.8851 4.83757 12.6395C4.83757 12.4875 4.84927 12.3354 4.87266 12.1951C4.35804 11.9612 4.00716 11.4582 4.00716 10.8617C4.00716 10.0547 4.66213 9.39976 5.46915 9.39976C5.85511 9.39976 6.21769 9.5635 6.475 9.80911C7.48085 9.07227 8.87266 8.61613 10.4282 8.56935L11.1651 5.08397C11.1884 5.01379 11.2235 4.95531 11.282 4.92023C11.3405 4.88514 11.4107 4.87344 11.4808 4.88514L13.9019 5.39976C14.0656 5.04888 14.4165 4.81496 14.8259 4.81496C15.399 4.81496 15.8668 5.2828 15.8668 5.8559C15.8668 6.429 15.399 6.89683 14.8259 6.89683C14.2645 6.89683 13.8083 6.45239 13.7849 5.90268L11.6212 5.44654L10.9545 8.56935C12.475 8.62783 13.8551 9.09566 14.8493 9.80911C15.1066 9.5518 15.4575 9.39976 15.8551 9.39976ZM8.35804 10.8617C7.78494 10.8617 7.3171 11.3296 7.3171 11.9027C7.3171 12.4758 7.78494 12.9436 8.35804 12.9436C8.93114 12.9436 9.39897 12.4758 9.39897 11.9027C9.39897 11.3296 8.93114 10.8617 8.35804 10.8617ZM10.6621 15.4115C11.0598 15.4115 12.4165 15.3647 13.13 14.6512C13.2352 14.546 13.2352 14.3822 13.1534 14.2653C13.0481 14.16 12.8727 14.16 12.7674 14.2653C12.3113 14.7097 11.3639 14.8734 10.6738 14.8734C9.98377 14.8734 9.0247 14.7097 8.58026 14.2653C8.475 14.16 8.29956 14.16 8.1943 14.2653C8.08903 14.3705 8.08903 14.546 8.1943 14.6512C8.89605 15.353 10.2645 15.4115 10.6621 15.4115ZM11.9019 11.9027C11.9019 12.4758 12.3697 12.9436 12.9428 12.9436C13.5159 12.9436 13.9838 12.4758 13.9838 11.9027C13.9838 11.3296 13.5159 10.8617 12.9428 10.8617C12.3697 10.8617 11.9019 11.3296 11.9019 11.9027Z" fill="white"/>
</svg>
