<svg width="42" height="42" viewBox="0 0 42 42" fill="none" xmlns="http://www.w3.org/2000/svg">
<rect x="0.352539" y="0.484802" width="40.754" height="40.754" rx="20.377" fill="#7B12EF"/>
<path d="M11 30L12.4058 24.8642C11.5383 23.3608 11.0825 21.6567 11.0833 19.9092C11.0858 14.4458 15.5317 10 20.9942 10C23.645 10.0008 26.1333 11.0333 28.005 12.9067C29.8758 14.78 30.9058 17.27 30.905 19.9183C30.9025 25.3825 26.4567 29.8283 20.9942 29.8283C19.3358 29.8275 17.7017 29.4117 16.2542 28.6217L11 30ZM16.4975 26.8275C17.8942 27.6567 19.2275 28.1533 20.9908 28.1542C25.5308 28.1542 29.2292 24.4592 29.2317 19.9167C29.2333 15.365 25.5525 11.675 20.9975 11.6733C16.4542 11.6733 12.7583 15.3683 12.7567 19.91C12.7558 21.7642 13.2992 23.1525 14.2117 24.605L13.3792 27.645L16.4975 26.8275ZM25.9867 22.2742C25.925 22.1708 25.76 22.1092 25.5117 21.985C25.2642 21.8608 24.0467 21.2617 23.8192 21.1792C23.5925 21.0967 23.4275 21.055 23.2617 21.3033C23.0967 21.5508 22.6217 22.1092 22.4775 22.2742C22.3333 22.4392 22.1883 22.46 21.9408 22.3358C21.6933 22.2117 20.895 21.9508 19.9492 21.1067C19.2133 20.45 18.7158 19.6392 18.5717 19.3908C18.4275 19.1433 18.5567 19.0092 18.68 18.8858C18.7917 18.775 18.9275 18.5967 19.0517 18.4517C19.1775 18.3083 19.2183 18.205 19.3017 18.0392C19.3842 17.8742 19.3433 17.7292 19.2808 17.605C19.2183 17.4817 18.7233 16.2625 18.5175 15.7667C18.3158 15.2842 18.1117 15.3492 17.96 15.3417L17.485 15.3333C17.32 15.3333 17.0517 15.395 16.825 15.6433C16.5983 15.8917 15.9583 16.49 15.9583 17.7092C15.9583 18.9283 16.8458 20.1058 16.9692 20.2708C17.0933 20.4358 18.715 22.9375 21.1992 24.01C21.79 24.265 22.2517 24.4175 22.6108 24.5317C23.2042 24.72 23.7442 24.6933 24.1708 24.63C24.6467 24.5592 25.6358 24.0308 25.8425 23.4525C26.0492 22.8733 26.0492 22.3775 25.9867 22.2742Z" fill="white"/>
</svg>
