<svg width="18" height="12" viewBox="0 0 18 12" fill="none" xmlns="http://www.w3.org/2000/svg">
<path d="M17.1476 2.78941C17.1476 2.78941 16.9881 1.66307 16.4967 1.1685C15.8745 0.517581 15.1789 0.51439 14.8598 0.4761C12.5753 0.310181 9.14519 0.310181 9.14519 0.310181H9.1388C9.1388 0.310181 5.70873 0.310181 3.42414 0.4761C3.10506 0.51439 2.40948 0.517581 1.78728 1.1685C1.2959 1.66307 1.13955 2.78941 1.13955 2.78941C1.13955 2.78941 0.973633 4.11357 0.973633 5.43455V6.67257C0.973633 7.99355 1.13636 9.31771 1.13636 9.31771C1.13636 9.31771 1.2959 10.4441 1.78409 10.9386C2.40629 11.5895 3.22312 11.5672 3.58687 11.6374C4.89508 11.7618 9.14199 11.8001 9.14199 11.8001C9.14199 11.8001 12.5753 11.7937 14.8598 11.631C15.1789 11.5927 15.8745 11.5895 16.4967 10.9386C16.9881 10.4441 17.1476 9.31771 17.1476 9.31771C17.1476 9.31771 17.3104 7.99674 17.3104 6.67257V5.43455C17.3104 4.11357 17.1476 2.78941 17.1476 2.78941ZM7.45408 8.17542V3.58391L11.8669 5.88764L7.45408 8.17542Z" fill="white"/>
</svg>
